<!DOCTYPE svg PUBLIC "-//W3C//DTD SVG 20010904//EN" "http://www.w3.org/TR/2001/REC-SVG-20010904/DTD/svg10.dtd">
<svg version="1.0" xmlns="http://www.w3.org/2000/svg" width="512px" height="512px" viewBox="0 0 5120 5120" preserveAspectRatio="xMidYMid meet">
<g id="layer101" fill="#000000" stroke="none">
 <path d="M2550 4733 c-215 -32 -442 -118 -610 -229 -230 -151 -427 -399 -524 -656 -21 -55 -24 -58 -101 -97 -208 -105 -348 -264 -390 -443 -9 -37 -15 -113 -15 -183 0 -186 32 -284 124 -381 28 -29 78 -69 111 -87 50 -27 60 -38 63 -62 4 -41 40 -151 67 -205 l23 -45 -34 -39 c-19 -22 -34 -42 -34 -45 0 -10 210 -77 345 -110 312 -78 561 -105 975 -105 341 -1 458 7 760 50 301 43 633 125 647 161 3 8 -5 25 -19 39 l-24 25 33 115 c18 64 36 133 39 153 5 30 14 42 49 65 117 74 222 239 251 396 40 209 -14 374 -172 535 -67 68 -215 176 -281 205 -23 10 -34 25 -43 54 -42 140 -184 360 -321 497 -203 203 -457 331 -758 383 -93 16 -112 17 -161 9z m169 -319 c318 -80 596 -337 784 -726 l62 -127 50 -16 c139 -46 276 -148 329 -245 34 -62 44 -146 26 -219 -6 -28 -14 -51 -16 -51 -3 0 -19 7 -37 17 -47 24 -136 22 -180 -6 -52 -32 -65 -75 -65 -212 -1 -107 -16 -238 -31 -266 -4 -8 -23 -1 -61 24 -153 99 -399 196 -609 240 -116 25 -145 27 -366 28 -210 0 -254 -3 -350 -22 -252 -52 -458 -132 -654 -255 -25 -15 -48 -28 -52 -28 -12 0 -29 150 -29 263 0 130 -10 176 -49 219 -25 28 -36 32 -93 36 -42 3 -76 -1 -100 -11 l-36 -15 -11 43 c-46 183 80 352 317 425 l54 17 37 90 c169 409 459 691 811 788 102 28 181 31 269 9z"/>
 <path d="M3860 1988 c-239 -64 -551 -116 -844 -138 -182 -14 -661 -14 -857 0 -326 23 -670 69 -949 126 -69 15 -131 27 -138 28 -9 1 -25 -40 -48 -117 -40 -139 -66 -195 -202 -429 -59 -101 -102 -185 -102 -201 0 -14 10 -37 22 -52 14 -15 191 -106 453 -234 903 -438 1305 -614 1405 -613 106 1 485 165 1330 576 537 261 544 265 548 296 2 20 -34 67 -167 223 -219 256 -291 366 -330 508 l-16 56 -105 -29z m-1207 -319 c115 -59 225 -157 266 -237 19 -38 21 -58 21 -232 l0 -190 -340 0 -340 0 0 203 0 202 30 53 c18 30 54 71 88 97 58 46 196 124 220 125 7 0 32 -10 55 -21z"/>
 </g>

</svg>