<?xml version="1.0" encoding="UTF-8" standalone="no"?>
<svg
   xmlns:dc="http://purl.org/dc/elements/1.1/"
   xmlns:cc="http://creativecommons.org/ns#"
   xmlns:rdf="http://www.w3.org/1999/02/22-rdf-syntax-ns#"
   xmlns:svg="http://www.w3.org/2000/svg"
   xmlns="http://www.w3.org/2000/svg"
   xmlns:sodipodi="http://sodipodi.sourceforge.net/DTD/sodipodi-0.dtd"
   xmlns:inkscape="http://www.inkscape.org/namespaces/inkscape"
   width="13"
   height="24"
   viewBox="0 0 13 24"
   version="1.1"
   id="svg827"
   sodipodi:docname="iconmonstr-weather-48.svg"
   inkscape:version="0.92.4 (5da689c313, 2019-01-14)">
  <metadata
     id="metadata833">
    <rdf:RDF>
      <cc:Work
         rdf:about="">
        <dc:format>image/svg+xml</dc:format>
        <dc:type
           rdf:resource="http://purl.org/dc/dcmitype/StillImage" />
        <dc:title></dc:title>
      </cc:Work>
    </rdf:RDF>
  </metadata>
  <defs
     id="defs831" />
  <sodipodi:namedview
     pagecolor="#ffffff"
     bordercolor="#666666"
     borderopacity="1"
     objecttolerance="10"
     gridtolerance="10"
     guidetolerance="10"
     inkscape:pageopacity="0"
     inkscape:pageshadow="2"
     inkscape:window-width="1920"
     inkscape:window-height="1017"
     id="namedview829"
     showgrid="false"
     inkscape:zoom="8.8333333"
     inkscape:cx="-28.395095"
     inkscape:cy="6.121796"
     inkscape:window-x="-8"
     inkscape:window-y="-8"
     inkscape:window-maximized="1"
     inkscape:current-layer="svg827" />
  <path
     d="m 5,3.5 v 7.525 C 5,12.595 4.486,13.313 3.59,14.074 2.579,14.933 2,16.181 2,17.5 2,19.981 4.019,22 6.5,22 8.981,22 11,19.981 11,17.5 11,16.181 10.421,14.933 9.411,14.074 8.514,13.312 8,12.594 8,11.025 V 3.5 C 8,2.673 7.327,2 6.5,2 5.673,2 5,2.673 5,3.5 Z m 5,0 v 7.525 c 0,0.587 0.258,1.145 0.705,1.525 C 12.108,13.742 13,15.516 13,17.5 13,21.09 10.091,24 6.5,24 2.909,24 0,21.09 0,17.5 0,15.516 0.892,13.742 2.295,12.551 2.742,12.17 3,11.611 3,11.025 V 3.5 C 3,1.566 4.567,0 6.5,0 8.433,0 10,1.566 10,3.5 Z m 0,14 C 10,19.434 8.433,21 6.5,21 4.567,21 3,19.434 3,17.5 3,16.359 3.599,15.416 4.393,14.719 5.403,13.83 6,12.982 6,11.498 V 11 h 1 v 0.498 c 0,1.486 0.595,2.33 1.607,3.221 C 9.401,15.416 10,16.359 10,17.5 Z"
     id="path825"
     inkscape:connector-curvature="0"
     sodipodi:nodetypes="sscssscsssssscssscssssssscsccscs" />
</svg>
