<?xml version="1.0" encoding="UTF-8" standalone="no"?>
<!-- Created with Inkscape (http://www.inkscape.org/) -->

<svg
   xmlns:dc="http://purl.org/dc/elements/1.1/"
   xmlns:cc="http://creativecommons.org/ns#"
   xmlns:rdf="http://www.w3.org/1999/02/22-rdf-syntax-ns#"
   xmlns:svg="http://www.w3.org/2000/svg"
   xmlns="http://www.w3.org/2000/svg"
   xmlns:sodipodi="http://sodipodi.sourceforge.net/DTD/sodipodi-0.dtd"
   xmlns:inkscape="http://www.inkscape.org/namespaces/inkscape"
   width="6.3499999mm"
   height="6.3499999mm"
   viewBox="0 0 6.3499999 6.3499999"
   version="1.1"
   id="svg8"
   inkscape:version="0.92.4 (5da689c313, 2019-01-14)"
   sodipodi:docname="globe.svg">
  <defs
     id="defs2" />
  <sodipodi:namedview
     id="base"
     pagecolor="#ffffff"
     bordercolor="#666666"
     borderopacity="1.0"
     inkscape:pageopacity="0.0"
     inkscape:pageshadow="2"
     inkscape:zoom="15.839192"
     inkscape:cx="29.590675"
     inkscape:cy="16.373617"
     inkscape:document-units="mm"
     inkscape:current-layer="layer1"
     showgrid="false"
     inkscape:window-width="1920"
     inkscape:window-height="1017"
     inkscape:window-x="-8"
     inkscape:window-y="-8"
     inkscape:window-maximized="1" />
  <metadata
     id="metadata5">
    <rdf:RDF>
      <cc:Work
         rdf:about="">
        <dc:format>image/svg+xml</dc:format>
        <dc:type
           rdf:resource="http://purl.org/dc/dcmitype/StillImage" />
        <dc:title></dc:title>
      </cc:Work>
    </rdf:RDF>
  </metadata>
  <g
     inkscape:label="Capa 1"
     inkscape:groupmode="layer"
     id="layer1"
     transform="translate(-83.75952,-131.29524)">
    <path
       id="path815"
       d="m 87.23721,133.45715 c -0.009,-0.0175 0.0905,-0.027 0.10821,-0.027 0.0196,0.002 -0.0519,0.1196 -0.10821,0.027 z m -0.56939,-0.8128 0.0286,-0.008 c 0.0169,0.0145 -0.0191,0.0251 -0.0135,0.036 0.0228,0.041 0.006,0.0656 0.002,0.0878 -0.004,0.0225 -0.0275,0.0127 -0.0394,0.0246 -0.014,0.0175 0.0683,0.0198 0.0693,0.0225 0.003,0.009 -0.0992,0.0236 -0.0804,0.0452 0.0254,0.036 0.21802,-0.0516 0.18732,-0.0466 0.0595,-0.0299 0.008,-0.0331 -0.0257,-0.0503 -0.0114,-0.0569 -0.0209,-0.14473 -0.0564,-0.17992 l 0.0233,-0.027 c -0.0545,-0.0791 -0.0952,0.0958 -0.0952,0.0958 z m 3.4417,1.82589 c 0,1.7534 -1.4216,3.175 -3.175,3.175 -1.75365,0 -3.175,-1.4216 -3.175,-3.175 0,-1.75339 1.42135,-3.175 3.175,-3.175 1.7534,0 3.175,1.42161 3.175,3.175 z m -2.19868,-1.42107 c -0.002,-0.0386 -0.0503,-0.0752 -0.10107,-0.008 -0.0357,0.046 -0.0294,0.11615 -0.0487,0.14737 -0.0275,0.0463 0.15002,0.0897 0.15002,0.046 0.007,-0.0733 0.19368,-0.0167 0.23019,-0.007 0.0656,0.0183 0.17013,-0.0598 0.0558,-0.10081 -0.0939,-0.0344 -0.14341,-0.0712 -0.15188,-0.13838 0,0 0.0497,-0.0466 0.0281,-0.0439 -0.0577,0.007 -0.16245,0.20796 -0.16245,0.10451 z m 1.66581,1.42107 c 0,-0.27384 -0.0468,-0.55033 -0.0944,-0.69638 -0.0154,-0.046 -0.05,-0.0825 -0.095,-0.10001 -0.0677,-0.0265 -0.35375,0.15795 -0.39687,0.0672 -0.0283,-0.0606 -0.0857,0.0386 -0.15135,0.002 -0.0317,-0.0175 -0.12012,-0.13626 -0.16007,-0.12171 -0.0817,0.0294 0.12541,0.25506 0.18203,0.28469 0.0532,-0.0402 0.22543,-0.12303 0.26247,-0.01 0.0709,0.21272 -0.195,0.44582 -0.33099,0.56859 -0.2032,0.18362 -0.1651,-0.1188 -0.30348,-0.22543 -0.0728,-0.0558 -0.072,-0.17462 -0.14552,-0.21563 -0.0328,-0.0185 -0.18336,-0.19183 -0.18203,-0.21511 l -0.005,0.0439 c -0.0249,0.0188 -0.0778,-0.0709 -0.0833,-0.0849 0,0.078 0.127,0.20241 0.16907,0.26485 0.0717,0.10715 0.11007,0.26326 0.19791,0.35083 0.0471,0.0471 0.22701,0.24183 0.27384,0.2376 0.0511,-0.005 0.21247,-0.12118 0.24104,-0.11456 0.17039,0.0402 -0.40111,0.84799 -0.45535,0.948 -0.0447,0.0839 0.0365,0.2913 0.0299,0.39052 -0.008,0.11457 -0.0979,0.15161 -0.18336,0.21405 -0.0915,0.0669 -0.0701,0.19712 -0.1471,0.24474 -0.13679,0.0841 -0.23522,0.35798 -0.42942,0.35666 -0.0572,-2.7e-4 -0.30163,0.0952 -0.33364,0.002 -0.0249,-0.0677 -0.0582,-0.11906 -0.0934,-0.186 -0.0344,-0.0656 -0.004,-0.13362 -0.0458,-0.19156 -0.0288,-0.0402 -0.12568,-0.1315 -0.13441,-0.17912 -5.3e-4,-0.041 0.031,-0.16563 0.0741,-0.18733 0.0606,-0.031 0.0116,-0.12118 0.004,-0.17356 -0.0127,-0.0937 -0.0707,-0.17093 -0.14023,-0.22516 -0.10293,-0.0791 -0.0498,-0.14209 -0.0257,-0.25506 0,-0.054 -0.0328,-0.12489 -0.1053,-0.10372 -0.14923,0.0434 -0.10398,-0.11642 -0.21273,-0.10927 -0.0783,0.006 -0.14234,0.0553 -0.2151,0.0773 -0.0915,0.0275 -0.18521,-0.0217 -0.2757,-0.0331 -0.37227,-0.0471 -0.49371,-0.47254 -0.39661,-0.77946 0.01,-0.0503 -0.0302,-0.1434 -0.0127,-0.1823 0.0418,-0.0931 0.127,-0.19764 0.20161,-0.26829 0.0418,-0.0397 0.0955,-0.0296 0.14473,-0.0606 0.0759,-0.0479 0.077,-0.14631 0.15134,-0.20663 0.10583,-0.086 0.2503,-0.0841 0.38841,-0.10266 0.0735,-0.01 0.35348,-0.0704 0.39767,-0.0159 0,0.0101 0.0505,0.15981 -0.005,0.15134 0.11456,0.006 0.27781,0.19818 0.38655,0.1532 0.0558,-0.0233 0.0355,-0.19474 0.15002,-0.11192 0.0693,0.0497 0.37995,0.072 0.4445,0.0183 0.0397,-0.0328 0.0619,-0.24607 0.0138,-0.27014 0.0307,0.0304 -0.16166,0.0328 -0.17965,0.0259 -0.0318,-0.0116 -0.0614,0.0302 -0.11245,0.007 0.0307,0.0146 -0.17092,-0.0937 -0.0577,-0.17647 -0.0474,0.0347 -0.0915,-0.01 -0.14261,0.0283 -0.0352,0.0286 0.0164,0.0476 -0.0339,0.0725 -0.0799,0.0405 -0.14022,-0.1389 -0.17038,-0.15927 -0.0307,-0.0201 -0.26829,-0.1868 -0.20373,-0.078 l 0.20875,0.2077 c -0.0103,0.007 -0.0548,-0.0757 -0.0548,-0.0156 0.014,-0.0357 0.005,0.15319 -0.0275,0.0918 -0.0145,-0.0236 0.0238,-0.0368 0.002,-0.0709 0,-0.0225 -0.0603,-0.0445 -0.072,-0.0598 -0.0331,-0.041 -0.12091,-0.1315 -0.16854,-0.15319 -0.0132,-0.006 -0.20214,0.023 -0.21802,0.0291 -0.0185,0.0259 -0.0344,0.0532 -0.0474,0.0823 -0.0391,0.0145 -0.0759,0.0333 -0.11086,0.0566 l -0.0415,0.0934 c -0.018,0.0161 -0.2024,0.077 -0.20346,0.0794 0.008,-0.0198 -0.12885,-0.0452 -0.11986,-0.0849 0.0101,-0.0437 0.0564,-0.17992 0.0445,-0.22966 -0.0127,-0.0521 0.28417,0.0751 0.30322,-0.0622 0.008,-0.0595 0.0122,-0.12885 -0.0828,-0.1389 0.018,0.002 0.18389,-0.0651 0.2114,-0.0953 0.0386,-0.0444 0.12727,-0.11695 0.19156,-0.11695 0.0751,0 0.059,-0.10927 0.0937,-0.16272 0.0347,0.014 -0.0185,0.0995 0.023,0.13415 -0.003,-0.0273 0.11774,0.0151 0.12938,0.009 0.0275,-0.0143 0.18098,-0.006 0.15717,-0.0778 -0.0265,-0.0733 0.0135,-0.0516 0.0479,-0.0669 -0.006,0.002 0.0899,-0.16378 0.10636,-0.10927 -0.0114,-0.0561 -0.11139,0.0196 -0.14632,0.0167 -0.0807,-0.006 -0.0466,-0.13759 -0.0161,-0.17595 0.0236,-0.0304 -0.0643,-0.0677 -0.0654,-0.01 -0.002,0.0871 -0.0825,0.16589 -0.0638,0.28151 0.0286,0.17437 -0.19447,-0.0421 -0.21405,-0.0301 -0.0741,0.045 -0.13467,-0.0566 -0.0963,-0.11748 0.0392,-0.0622 0.13361,-0.0593 0.17251,-0.12594 0.0275,-0.0471 0.0595,-0.10186 0.10186,-0.13758 0.14156,-0.1188 0.18071,-0.0238 0.32174,-0.0109 0.13784,0.0127 0.0466,0.0328 0.0275,0.0857 -0.0182,0.0503 0.0757,0.0683 0.10822,0.0262 0.0185,-0.0243 0.0606,-0.0855 0.0788,-0.13071 0.0236,-0.0587 0.23839,-0.0521 0.0884,-0.14181 -0.099,-0.059 -0.53022,-0.1778 -0.81915,-0.1778 -0.0624,0 -0.10609,0.0696 -0.15372,0.10901 -0.0942,0.078 -0.33549,0.23124 -0.46963,0.18468 -0.13732,-0.0474 -0.43127,0.17462 -0.47837,0.17621 -0.0172,0.001 0.001,-0.16775 0.0947,-0.18018 -0.0405,0.006 0.32994,-0.18706 0.31988,-0.22728 -0.0122,-0.0476 -0.74057,0.21749 -0.70802,0.27067 0.0156,0.0243 0.0791,0.0243 -0.004,0.0778 -0.0476,0.0288 -0.0984,0.21193 -0.14315,0.21193 -0.13361,0.0585 -0.14208,-0.1151 -0.29077,0.10821 l -0.23654,0.0952 c -0.35137,0.37333 -0.59452,0.84614 -0.68263,1.37134 -0.003,0.0209 0.0884,0.0598 0.10028,0.0741 0.0296,0.0354 0.0296,0.18838 0.0442,0.23839 0.0365,0.12647 0.12673,0.19685 0.19579,0.31194 0.0407,0.0685 0.10848,0.24183 0.087,0.3138 0.0286,-0.0471 0.2831,0.21563 0.32967,0.2704 0.10953,0.12886 0.19394,0.28496 0.0161,0.41249 -0.0574,0.0413 0.0873,0.29871 0.0127,0.36195 l -0.0955,0.0246 c -0.0942,0.0579 -0.0516,0.20002 0.006,0.25982 0.48101,0.50297 1.15888,0.81676 1.91029,0.81676 1.45971,0 2.64293,-1.18321 2.64293,-2.64292 z m -3.04456,-1.68195 c 0.0331,-0.0146 0.0775,-0.014 0.0823,-0.0582 0.004,-0.0392 0.0116,-0.0122 0.0212,-0.0265 0.009,-0.014 -0.0177,-0.0365 -0.0291,-0.0386 -0.0169,-0.004 -0.0286,0.0183 -0.0394,0.0275 l -0.0191,0.005 -0.018,0.023 0.002,0.0127 -0.023,0.028 c -0.0225,0.0222 5.3e-4,0.0368 0.023,0.027 z"
       inkscape:connector-curvature="0"
       style="stroke-width:0.26458332" />
  </g>
</svg>
