<?xml version="1.0" standalone="no"?>
<!DOCTYPE svg PUBLIC "-//W3C//DTD SVG 20010904//EN" "http://www.w3.org/TR/2001/REC-SVG-20010904/DTD/svg10.dtd">
<!-- Created using Krita: http://krita.org -->
<svg xmlns="http://www.w3.org/2000/svg" 
    xmlns:xlink="http://www.w3.org/1999/xlink"
    xmlns:krita="http://krita.org/namespaces/svg/krita"
    xmlns:sodipodi="http://sodipodi.sourceforge.net/DTD/sodipodi-0.dtd"
    width="737.28pt"
    height="737.28pt"
    viewBox="0 0 737.28 737.28">
<defs/>
<rect id="shape0" transform="matrix(1 0 -0.58273771044515 1 121.243368943138 378.653989813243)" fill="#ffffff" fill-rule="evenodd" stroke="#000000" stroke-width="3.6" stroke-linecap="square" stroke-linejoin="bevel" width="339.12" height="150.835721561969"/><rect id="shape0" transform="matrix(0.999996116474195 -0.00279538700629085 -1.9843097169987 1.00555085921664 278.702896153354 299.487713296582)" fill="#ffffff" stroke="#000000" stroke-width="5.04" stroke-linecap="square" stroke-linejoin="bevel" width="339.030097375385" height="79.2199319627992"/><rect id="shape01" transform="matrix(1.00000002357599 0 -0.582737724183752 1.00000001695857 366.850753690313 147.143069255111)" fill="#ffffff" stroke="#000000" stroke-width="3.6" stroke-linecap="square" stroke-linejoin="bevel" width="340.580936679835" height="150.835721561969"/><circle id="shape02" transform="matrix(1.00000002201305 0 0 1.00000001423677 298.8000065775 131.040001865587)" r="48.96" cx="48.96" cy="48.96" fill="none" stroke="#000000" stroke-width="3.6" stroke-linecap="square" stroke-linejoin="bevel"/><path id="shape03" transform="matrix(1.00000004813772 0 0 0.999999979910559 263.391349760974 55.5222246868523)" fill="#000000" stroke="#000000" stroke-width="3.6" stroke-linecap="square" stroke-linejoin="bevel" d="M208.358 102.019C208.358 45.6754 161.715 3.44993e-15 104.179 0C46.6425 -3.44993e-15 7.04595e-15 45.6754 0 102.019C-7.04595e-15 158.362 46.4214 258.758 105.398 290.438C155.734 260.198 208.358 158.362 208.358 102.019Z"/><circle id="shape04" transform="matrix(1.00000002612467 0 0 0.99999996567379 317.16000696082 108.359997917027)" r="48.96" cx="48.96" cy="48.96" fill="#ffffff" fill-rule="evenodd" stroke="#000000" stroke-width="3.6" stroke-linecap="square" stroke-linejoin="bevel"/><path id="shape1" transform="matrix(1.00000002612467 0 0 0.99999996567379 299.36072352511 149.17123586828)" fill="none" stroke="#000000" stroke-width="3.6" stroke-linecap="square" stroke-linejoin="miter" stroke-miterlimit="2" d="M0 113.533L64.1487 0"/><path id="shape2" transform="matrix(1.00000002612467 0 0 -0.99999996567379 364.680032640178 148.513002186805)" fill="none" stroke="#000000" stroke-width="3.6" stroke-linecap="square" stroke-linejoin="miter" stroke-miterlimit="2" d="M0 0.36L104.726 0"/>
</svg>
