<svg width="982" height="1163" viewBox="0 0 982 1163" fill="none" xmlns="http://www.w3.org/2000/svg">
<path fill-rule="evenodd" clip-rule="evenodd" d="M506.016 206.118L505.831 205.932C505.831 205.932 568.996 140.815 594.404 122.067C638.208 89.7311 696.144 109.482 696.144 109.482C696.144 109.482 696.923 163.87 661.427 185.959C627.563 207.046 595.108 198.322 591.622 197.357C604.789 178.794 623.26 154.106 648.037 141.743C629.751 140.704 607.608 150.876 590.287 167.025C576.192 180.13 543.552 213.692 532.054 225.534V340.622C571.667 308.694 644.625 250.074 665.692 233.813C723.851 188.818 802.595 214.434 802.595 214.434C802.595 214.434 803.633 287.31 756.083 316.899C710.721 345.114 653.972 327.962 649.335 326.663C671.775 301.863 707.308 279.254 740.468 262.734C707.16 258.204 680.603 268.562 638.505 302.086C609.24 325.438 546.111 376.819 532.054 388.253V507.09C577.639 472.601 671.256 402.732 713.799 378.935C819.508 319.795 903 368.391 903 368.391C903 368.391 893.245 463.803 826.556 495.247C762.982 525.244 684.238 492.426 678.34 490.05C711.463 461.018 759.829 435.588 811.311 422.631C762.5 414.872 713.911 415.392 647.555 467.664C612.319 495.396 548.708 541.802 532.054 553.905L532.091 891H457.909L457.872 553.905C441.181 541.728 377.681 495.396 342.445 467.664C276.089 415.392 227.5 414.872 178.689 422.631C230.171 435.588 278.537 461.018 311.66 490.05C305.762 492.426 227.018 525.244 163.444 495.247C96.7549 463.803 87 368.391 87 368.391C87 368.391 170.492 319.795 276.201 378.935C318.707 402.732 412.324 472.527 457.872 507.09V388.365C444.148 377.19 380.686 325.512 351.273 302.086C309.175 268.562 282.617 258.204 249.31 262.734C282.506 279.254 318.039 301.863 340.442 326.663C335.806 327.962 279.057 345.114 233.732 316.899C186.181 287.31 187.22 214.434 187.22 214.434C187.22 214.434 265.927 188.818 324.122 233.813C345.19 250.111 418.296 308.843 457.872 340.733V225.46C446.337 213.543 413.771 180.093 399.713 167.025C382.392 150.876 360.249 140.704 341.963 141.743C366.74 154.106 385.211 178.794 398.378 197.357C394.892 198.322 362.437 207.046 328.573 185.959C293.077 163.87 293.856 109.482 293.856 109.482C293.856 109.482 351.792 89.7311 395.596 122.067C421.004 140.815 484.169 205.932 484.169 205.932L483.947 206.192L494.963 216.439L506.016 206.118ZM613.394 554.573C627.823 549.45 688.392 530.962 746.291 559.028C812.609 591.179 821.845 687.518 821.845 687.518C821.845 687.518 741.061 740.235 674.297 707.9C610.612 677.049 589.1 610.001 587.245 603.912C630.901 611.449 674.891 626.856 716.841 652.361C685.425 612.934 650.708 580.858 613.394 554.573ZM376.606 554.573C362.177 549.45 301.608 530.962 243.709 559.028C177.391 591.179 168.155 687.518 168.155 687.518C168.155 687.518 248.939 740.235 315.703 707.9C379.388 677.049 400.9 610.001 402.755 603.912C359.099 611.449 315.109 626.856 273.159 652.361C304.575 612.934 339.292 580.858 376.606 554.573ZM512.507 147.201C518.998 140.704 544.628 112.711 544.442 74.1015C544.257 29.9227 494.592 0 494.592 0C494.592 0 445.187 30.1084 445.409 74.5841C445.632 117.018 476.269 146.013 479.088 148.574C486.284 122.995 489.325 95.2256 486.432 65.8969C499.599 93.1466 507.945 120.211 512.507 147.201Z" fill="#DDDDDD"/>
<path d="M129.47 1093.38C129.47 1096.6 129.087 1100.13 128.32 1103.96H39.31C39.77 1113.62 42.2234 1120.6 46.67 1124.89C51.1167 1129.03 56.79 1131.1 63.69 1131.1C69.5167 1131.1 74.3467 1129.64 78.18 1126.73C82.0134 1123.82 84.5434 1120.06 85.77 1115.46H127.4C125.713 1124.51 122.033 1132.63 116.36 1139.84C110.687 1146.89 103.48 1152.49 94.74 1156.63C86 1160.62 76.2634 1162.61 65.53 1162.61C52.9567 1162.61 41.7634 1160 31.95 1154.79C22.29 1149.42 14.7 1141.76 9.18002 1131.79C3.66002 1121.82 0.900024 1110.17 0.900024 1096.83C0.900024 1083.34 3.58336 1071.68 8.95003 1061.87C14.47 1051.9 22.1367 1044.31 31.95 1039.1C41.7634 1033.73 52.9567 1031.05 65.53 1031.05C78.2567 1031.05 89.45 1033.66 99.11 1038.87C108.77 1044.08 116.207 1051.44 121.42 1060.95C126.787 1070.3 129.47 1081.11 129.47 1093.38ZM89.68 1087.4C89.8334 1078.97 87.5334 1072.68 82.78 1068.54C78.18 1064.25 72.43 1062.1 65.53 1062.1C58.3234 1062.1 52.3434 1064.25 47.59 1068.54C42.8367 1072.83 40.1534 1079.12 39.54 1087.4H89.68Z" fill="#DDDDDD"/>
<path d="M250.712 1063.94V1096.6H149.282V1063.94H250.712Z" fill="#DDDDDD"/>
<path d="M438.385 998.39V1161H398.825V1093.15H337.185V1161H297.855V998.39H337.185V1061.41H398.825V998.39H438.385Z" fill="#DDDDDD"/>
<path d="M536.944 1031.05C549.67 1031.05 561.017 1033.73 570.984 1039.1C581.104 1044.31 589 1051.9 594.674 1061.87C600.5 1071.84 603.414 1083.49 603.414 1096.83C603.414 1110.17 600.5 1121.82 594.674 1131.79C589 1141.76 581.104 1149.42 570.984 1154.79C561.017 1160 549.67 1162.61 536.944 1162.61C524.217 1162.61 512.794 1160 502.674 1154.79C492.554 1149.42 484.58 1141.76 478.754 1131.79C473.08 1121.82 470.244 1110.17 470.244 1096.83C470.244 1083.49 473.08 1071.84 478.754 1061.87C484.58 1051.9 492.554 1044.31 502.674 1039.1C512.794 1033.73 524.217 1031.05 536.944 1031.05ZM536.944 1065.09C529.43 1065.09 523.067 1067.85 517.854 1073.37C512.794 1078.74 510.264 1086.56 510.264 1096.83C510.264 1107.1 512.794 1114.92 517.854 1120.29C523.067 1125.66 529.43 1128.34 536.944 1128.34C544.457 1128.34 550.744 1125.66 555.804 1120.29C560.864 1114.92 563.394 1107.1 563.394 1096.83C563.394 1086.56 560.864 1078.74 555.804 1073.37C550.744 1067.85 544.457 1065.09 536.944 1065.09Z" fill="#DDDDDD"/>
<path d="M674.638 1056.81C679.545 1048.99 685.832 1042.78 693.498 1038.18C701.318 1033.58 709.752 1031.28 718.798 1031.28V1073.37H707.528C697.102 1073.37 688.975 1075.59 683.148 1080.04C677.475 1084.49 674.638 1092 674.638 1102.58V1161H635.308V1032.66H674.638V1056.81Z" fill="#DDDDDD"/>
<path d="M819.44 1127.19V1161H801.729C786.703 1161 774.973 1157.32 766.539 1149.96C758.259 1142.45 754.12 1130.1 754.12 1112.93V1065.78H736.87V1032.66H754.12V1001.15H793.449V1032.66H819.209V1065.78H793.449V1113.62C793.449 1118.68 794.446 1122.21 796.439 1124.2C798.586 1126.19 802.113 1127.19 807.019 1127.19H819.44Z" fill="#DDDDDD"/>
<path d="M901.805 1031.05C911.618 1031.05 920.051 1033.27 927.105 1037.72C934.158 1042.17 939.371 1048.22 942.745 1055.89V1032.66H981.845V1161H942.745V1137.77C939.371 1145.44 934.158 1151.49 927.105 1155.94C920.051 1160.39 911.618 1162.61 901.805 1162.61C891.225 1162.61 881.718 1160 873.285 1154.79C865.005 1149.42 858.411 1141.76 853.505 1131.79C848.751 1121.82 846.375 1110.17 846.375 1096.83C846.375 1083.34 848.751 1071.68 853.505 1061.87C858.411 1051.9 865.005 1044.31 873.285 1039.1C881.718 1033.73 891.225 1031.05 901.805 1031.05ZM914.455 1065.55C906.021 1065.55 899.198 1068.31 893.985 1073.83C888.925 1079.35 886.395 1087.02 886.395 1096.83C886.395 1106.64 888.925 1114.31 893.985 1119.83C899.198 1125.35 906.021 1128.11 914.455 1128.11C922.735 1128.11 929.481 1125.27 934.695 1119.6C940.061 1113.93 942.745 1106.34 942.745 1096.83C942.745 1087.17 940.061 1079.58 934.695 1074.06C929.481 1068.39 922.735 1065.55 914.455 1065.55Z" fill="#DDDDDD"/>
</svg>
