<?xml version="1.0" encoding="iso-8859-1"?>
<!-- Generator: Adobe Illustrator 18.1.1, SVG Export Plug-In . SVG Version: 6.00 Build 0)  -->
<svg version="1.1" id="Capa_1" xmlns="http://www.w3.org/2000/svg" xmlns:xlink="http://www.w3.org/1999/xlink" x="0px" y="0px"
	 viewBox="0 0 31.126 31.126" style="enable-background:new 0 0 31.126 31.126;" xml:space="preserve">
<g>
	<g>
		<g id="lightbulb">
			<g>
				<path style="fill:#090509;" d="M15.563,3.898c3.222,0,5.836,2.625,5.836,5.852c0,1.843-0.839,3.538-2.31,4.643
					c-2.194,1.66-3.081,3.496-3.387,5.038h-0.278c-0.303-1.543-1.193-3.378-3.389-5.038c-1.467-1.106-2.31-2.8-2.31-4.643
					C9.725,6.524,12.342,3.898,15.563,3.898 M15.563,0c-5.372,0-9.727,4.365-9.727,9.749c0,3.192,1.503,5.981,3.861,7.759
					c1.085,0.821,1.979,1.877,1.979,3.336v2.485h7.778v-2.485c0-1.459,0.893-2.515,1.976-3.336c2.36-1.778,3.861-4.567,3.861-7.759
					C25.29,4.365,20.935,0,15.563,0L15.563,0z"/>
				<rect x="11.676" y="27.227" style="fill:#090509;" width="7.778" height="3.898"/>
			</g>
		</g>
	</g>
</g>
<g>
</g>
<g>
</g>
<g>
</g>
<g>
</g>
<g>
</g>
<g>
</g>
<g>
</g>
<g>
</g>
<g>
</g>
<g>
</g>
<g>
</g>
<g>
</g>
<g>
</g>
<g>
</g>
<g>
</g>
</svg>
