<svg width="136" height="107" xmlns="http://www.w3.org/2000/svg">

 <g>
  <title>background</title>
  <rect fill="none" id="canvas_background" height="109" width="138" y="-1" x="-1"/>
 </g>
 <g>
  <title>Layer 1</title>
  <g id="svg_39">
   <g id="Capa_2"/>
   <path id="svg_1" fill-rule="evenodd" clip-rule="evenodd" d="m55.26,27.909499l-0.41,7.289l-0.21,0c-2.14,-4.009 -6.85,-8.379 -15.46,-8.379c-11.36,0 -22.2,9.3 -22.2,25.97c0,13.63 8.69,24.05 20.98,24.05c7.68,0 13,-3.69 15.76,-8.29l0.21,0l0,5.521c0,12.659 -6.76,17.56 -15.97,17.56c-6.15,0 -11.27,-1.88 -14.51,-3.96l-2.23,6.84c3.95,2.59 10.49,3.98 16.43,3.98c6.24,0 13.21,-1.391 18.01,-5.771c4.81,-4.32 7.06,-11.41 7.06,-22.85l0,-28.57c0,-5.89 0.2,-9.84 0.41,-13.39l-7.87,0zm-1.44,28.18c0,1.521 -0.2,3.239 -0.71,4.76c-1.95,5.68 -6.96,9.12 -12.49,9.12c-9.73,0 -14.65,-8 -14.65,-17.63c0,-11.44 6.15,-18.66 14.75,-18.66c6.55,0 10.96,4.27 12.6,9.45c0.4,1.22 0.5,2.54 0.5,4.069l0,8.891z"/>
   <path id="svg_2" fill-rule="evenodd" clip-rule="evenodd" fill="#820053" d="m112.51,10.448499c-3.26,0 -5.61,2.45 -5.61,5.621c0,3.06 2.25,5.509 5.41,5.509c3.57,0 5.81,-2.449 5.71,-5.509c0,-3.17 -2.14,-5.621 -5.51,-5.621z"/>
   <path id="svg_33" fill-rule="evenodd" clip-rule="evenodd" fill="#820053" d="m77.26,10.869499l0,16.989l-11.76,0l0,6.961l11.76,0l0,27.11c0,5.85 0.94,10.149 3.56,12.63c2.19,2.28 5.55,3.52 9.74,3.52c3.48,0 6.24,-0.469 7.97,-1.139l-0.41,-6.33c-1.12,0.3 -2.89,0.609 -5.24,0.609c-5.01,0 -6.74,-3.49 -6.74,-9.649l0,-26.751l22.8,0l0,42.24l10.08,0l0,-43.59c-0.24,-0.391 -4.89,-5.61 -4.89,-5.61l-27.99,0l0,-19.35l-8.88,2.36z"/>
   <path id="svg_34" fill-rule="evenodd" clip-rule="evenodd" fill="#820053" d="m108.94,32.899499c0,-2.779 2.26,-5.04 5.04,-5.04c2.78,0 5.04,2.261 5.04,5.04c0,2.78 -2.26,5.041 -5.04,5.041c-2.78,0 -5.04,-2.261 -5.04,-5.041z"/>
  </g>
 </g>
</svg>