<svg version="1.1" xmlns="http://www.w3.org/2000/svg" xmlns:xlink="http://www.w3.org/1999/xlink" width="142.91304349899292" height="134.30434799194336" style="" xml:space="preserve"><rect id="backgroundrect" width="100%" height="100%" x="0" y="0" fill="none" stroke="none" style="" class=""/>


<g class="currentLayer" style=""><title>Layer 1</title>
	
	
	
	
	
	
	
	
	
	
		
	
		
	
		
	
		
	
		
	
		
	
		
	
		
	
		
	
		
	
		
	
		
	
		
	
		
	
		
	
		
	
		
	
		
	
		
	
		
	
		
	
		
	
		
	
	
<g id="Capa_2">
</g><g class="selected"><path style="fill-rule:evenodd;clip-rule:evenodd;" d="M58.71713423728943,42.104976654052734 l-0.4099999964237213,7.289000034332275 h-0.20999999344348907 c-2.140000104904175,-4.008999824523926 -6.849999904632568,-8.378999710083008 -15.460000038146973,-8.378999710083008 c-11.359999656677246,0 -22.200000762939453,9.300000190734863 -22.200000762939453,25.969999313354492 c0,13.630000114440918 8.6899995803833,24.049999237060547 20.979999542236328,24.049999237060547 c7.679999828338623,0 13,-3.690000057220459 15.760000228881836,-8.289999961853027 h0.20999999344348907 v5.520999908447266 c0,12.659000396728516 -6.760000228881836,17.559999465942383 -15.970000267028809,17.559999465942383 c-6.150000095367432,0 -11.270000457763672,-1.8799999952316284 -14.510000228881836,-3.9600000381469727 l-2.2300000190734863,6.840000152587891 c3.950000047683716,2.5899999141693115 10.489999771118164,3.9800000190734863 16.43000030517578,3.9800000190734863 c6.239999771118164,0 13.210000038146973,-1.3910000324249268 18.010000228881836,-5.770999908447266 c4.809999942779541,-4.320000171661377 7.059999942779541,-11.40999984741211 7.059999942779541,-22.850000381469727 V55.49497604370117 c0,-5.889999866485596 0.20000000298023224,-9.84000015258789 0.4099999964237213,-13.390000343322754 H58.71713423728943 zM57.27713179588318,70.28498840332031 c0,1.5210000276565552 -0.20000000298023224,3.239000082015991 -0.7099999785423279,4.760000228881836 c-1.9500000476837158,5.679999828338623 -6.960000038146973,9.119999885559082 -12.489999771118164,9.119999885559082 c-9.729999542236328,0 -14.649999618530273,-8 -14.649999618530273,-17.6299991607666 c0,-11.4399995803833 6.150000095367432,-18.65999984741211 14.75,-18.65999984741211 c6.550000190734863,0 10.960000038146973,4.269999980926514 12.600000381469727,9.449999809265137 c0.4000000059604645,1.2200000286102295 0.5,2.5399999618530273 0.5,4.068999767303467 V70.28498840332031 z" id="svg_1" class=""/><path style="fill-rule:evenodd;clip-rule:evenodd;fill:#820053;" d="M115.96713423728943,24.64398193359375 c-3.259999990463257,0 -5.610000133514404,2.450000047683716 -5.610000133514404,5.620999813079834 c0,3.059999942779541 2.25,5.508999824523926 5.409999847412109,5.508999824523926 c3.569999933242798,0 5.809999942779541,-2.4489998817443848 5.710000038146973,-5.508999824523926 C121.47712874412537,27.094982147216797 119.33712935447693,24.64398193359375 115.96713423728943,24.64398193359375 z" id="svg_2" class=""/><path style="fill-rule:evenodd;clip-rule:evenodd;fill:#820053;" d="M80.71713423728943,25.064983367919922 v16.98900032043457 h-11.760000228881836 v6.960999965667725 h11.760000228881836 V76.12499237060547 c0,5.849999904632568 0.9399999976158142,10.14900016784668 3.559999942779541,12.630000114440918 c2.190000057220459,2.2799999713897705 5.550000190734863,3.5199999809265137 9.739999771118164,3.5199999809265137 c3.4800000190734863,0 6.239999771118164,-0.4690000116825104 7.96999979019165,-1.1390000581741333 l-0.4099999964237213,-6.329999923706055 c-1.1200000047683716,0.30000001192092896 -2.890000104904175,0.609000027179718 -5.239999771118164,0.609000027179718 c-5.010000228881836,0 -6.739999771118164,-3.490000009536743 -6.739999771118164,-9.64900016784668 V49.01498031616211 h22.799999237060547 V91.25498962402344 h10.079999923706055 V47.664981842041016 c-0.23999999463558197,-0.39100000262260437 -4.889999866485596,-5.610000133514404 -4.889999866485596,-5.610000133514404 h-27.989999771118164 V22.704980850219727 L80.71713423728943,25.064983367919922 z" id="svg_33" class=""/><path style="fill-rule:evenodd;clip-rule:evenodd;fill:#820053;" d="M112.39712691307068,47.0949821472168 c0,-2.7790000438690186 2.259999990463257,-5.039999961853027 5.039999961853027,-5.039999961853027 c2.7799999713897705,0 5.039999961853027,2.260999917984009 5.039999961853027,5.039999961853027 c0,2.7799999713897705 -2.259999990463257,5.040999889373779 -5.039999961853027,5.040999889373779 C114.65713667869568,52.135982513427734 112.39712691307068,49.87498092651367 112.39712691307068,47.0949821472168 z" id="svg_34" class=""/></g></g></svg>