<?xml version="1.0" encoding="UTF-8" standalone="no"?>
<svg
   xmlns:dc="http://purl.org/dc/elements/1.1/"
   xmlns:cc="http://creativecommons.org/ns#"
   xmlns:rdf="http://www.w3.org/1999/02/22-rdf-syntax-ns#"
   xmlns:svg="http://www.w3.org/2000/svg"
   xmlns="http://www.w3.org/2000/svg"
   xmlns:sodipodi="http://sodipodi.sourceforge.net/DTD/sodipodi-0.dtd"
   xmlns:inkscape="http://www.inkscape.org/namespaces/inkscape"
   version="1.1"
   width="142.91304349899292"
   height="134.30434799194336"
   style=""
   xml:space="preserve"
   id="svg3745"
   sodipodi:docname="logo_v2.svg"
   inkscape:version="0.92.4 (5da689c313, 2019-01-14)"><metadata
   id="metadata3751"><rdf:RDF><cc:Work
       rdf:about=""><dc:format>image/svg+xml</dc:format><dc:type
         rdf:resource="http://purl.org/dc/dcmitype/StillImage" /><dc:title></dc:title></cc:Work></rdf:RDF></metadata><defs
   id="defs3749" /><sodipodi:namedview
   pagecolor="#ffffff"
   bordercolor="#666666"
   borderopacity="1"
   objecttolerance="10"
   gridtolerance="10"
   guidetolerance="10"
   inkscape:pageopacity="0"
   inkscape:pageshadow="2"
   inkscape:window-width="1920"
   inkscape:window-height="1017"
   id="namedview3747"
   showgrid="false"
   inkscape:zoom="6.3140173"
   inkscape:cx="71.45652"
   inkscape:cy="67.152176"
   inkscape:window-x="-8"
   inkscape:window-y="-8"
   inkscape:window-maximized="1"
   inkscape:current-layer="svg3745" /><rect
   id="backgroundrect"
   width="100%"
   height="100%"
   x="0"
   y="0"
   fill="none"
   stroke="none"
   style=""
   class="" />


<g
   class="currentLayer"
   style=""
   id="g3743"><title
   id="title3734">Layer 1</title>
	
	
	
	
	
	
	
	
	
	
		
	
		
	
		
	
		
	
		
	
		
	
		
	
		
	
		
	
		
	
		
	
		
	
		
	
		
	
		
	
		
	
		
	
		
	
		
	
		
	
		
	
		
	
		
	
	
<g
   id="Capa_2">
</g><g
   class="selected"
   id="g3741"><path
     style="fill-rule:evenodd;clip-rule:evenodd;"
     d="M58.71713423728943,42.104976654052734 l-0.4099999964237213,7.289000034332275 h-0.20999999344348907 c-2.140000104904175,-4.008999824523926 -6.849999904632568,-8.378999710083008 -15.460000038146973,-8.378999710083008 c-11.359999656677246,0 -22.200000762939453,9.300000190734863 -22.200000762939453,25.969999313354492 c0,13.630000114440918 8.6899995803833,24.049999237060547 20.979999542236328,24.049999237060547 c7.679999828338623,0 13,-3.690000057220459 15.760000228881836,-8.289999961853027 h0.20999999344348907 v5.520999908447266 c0,12.659000396728516 -6.760000228881836,17.559999465942383 -15.970000267028809,17.559999465942383 c-6.150000095367432,0 -11.270000457763672,-1.8799999952316284 -14.510000228881836,-3.9600000381469727 l-2.2300000190734863,6.840000152587891 c3.950000047683716,2.5899999141693115 10.489999771118164,3.9800000190734863 16.43000030517578,3.9800000190734863 c6.239999771118164,0 13.210000038146973,-1.3910000324249268 18.010000228881836,-5.770999908447266 c4.809999942779541,-4.320000171661377 7.059999942779541,-11.40999984741211 7.059999942779541,-22.850000381469727 V55.49497604370117 c0,-5.889999866485596 0.20000000298023224,-9.84000015258789 0.4099999964237213,-13.390000343322754 H58.71713423728943 zM57.27713179588318,70.28498840332031 c0,1.5210000276565552 -0.20000000298023224,3.239000082015991 -0.7099999785423279,4.760000228881836 c-1.9500000476837158,5.679999828338623 -6.960000038146973,9.119999885559082 -12.489999771118164,9.119999885559082 c-9.729999542236328,0 -14.649999618530273,-8 -14.649999618530273,-17.6299991607666 c0,-11.4399995803833 6.150000095367432,-18.65999984741211 14.75,-18.65999984741211 c6.550000190734863,0 10.960000038146973,4.269999980926514 12.600000381469727,9.449999809265137 c0.4000000059604645,1.2200000286102295 0.5,2.5399999618530273 0.5,4.068999767303467 V70.28498840332031 z"
     id="svg_1"
     class="" /><path
     style="fill-rule:evenodd;clip-rule:evenodd;fill:#820053;"
     d="M115.96713423728943,24.64398193359375 c-3.259999990463257,0 -5.610000133514404,2.450000047683716 -5.610000133514404,5.620999813079834 c0,3.059999942779541 2.25,5.508999824523926 5.409999847412109,5.508999824523926 c3.569999933242798,0 5.809999942779541,-2.4489998817443848 5.710000038146973,-5.508999824523926 C121.47712874412537,27.094982147216797 119.33712935447693,24.64398193359375 115.96713423728943,24.64398193359375 z"
     id="svg_2"
     class="" /><path
     style="fill-rule:evenodd;clip-rule:evenodd;fill:#820053;"
     d="M80.71713423728943,25.064983367919922 v16.98900032043457 h-11.760000228881836 v6.960999965667725 h11.760000228881836 V76.12499237060547 c0,5.849999904632568 0.9399999976158142,10.14900016784668 3.559999942779541,12.630000114440918 c2.190000057220459,2.2799999713897705 5.550000190734863,3.5199999809265137 9.739999771118164,3.5199999809265137 c3.4800000190734863,0 6.239999771118164,-0.4690000116825104 7.96999979019165,-1.1390000581741333 l-0.4099999964237213,-6.329999923706055 c-1.1200000047683716,0.30000001192092896 -2.890000104904175,0.609000027179718 -5.239999771118164,0.609000027179718 c-5.010000228881836,0 -6.739999771118164,-3.490000009536743 -6.739999771118164,-9.64900016784668 V49.01498031616211 h22.799999237060547 V91.25498962402344 h10.079999923706055 V47.664981842041016 c-0.23999999463558197,-0.39100000262260437 -4.889999866485596,-5.610000133514404 -4.889999866485596,-5.610000133514404 h-27.989999771118164 V22.704980850219727 L80.71713423728943,25.064983367919922 z"
     id="svg_33"
     class="" /><path
     style="fill-rule:evenodd;clip-rule:evenodd;fill:#820053;"
     d="M112.39712691307068,47.0949821472168 c0,-2.7790000438690186 2.259999990463257,-5.039999961853027 5.039999961853027,-5.039999961853027 c2.7799999713897705,0 5.039999961853027,2.260999917984009 5.039999961853027,5.039999961853027 c0,2.7799999713897705 -2.259999990463257,5.040999889373779 -5.039999961853027,5.040999889373779 C114.65713667869568,52.135982513427734 112.39712691307068,49.87498092651367 112.39712691307068,47.0949821472168 z"
     id="svg_34"
     class="" /></g></g><path
   style="stroke-width:0.15837777"
   d="m 92.182168,92.103959 c -5.828654,-0.51497 -9.687512,-3.8497 -10.803061,-9.335735 -0.528066,-2.596922 -0.578298,-4.254088 -0.578298,-19.07828 V 48.875381 h -5.859978 -5.859978 v -3.405122 -3.405122 h 5.859978 5.859978 v -8.461973 -8.461973 l 0.831483,-0.237436 c 1.729686,-0.493924 7.531536,-2.002329 7.701656,-2.002329 0.129308,0 0.177638,2.605688 0.177638,9.5771 v 9.5771 l 14.531164,0.04435 c 14.51195,0.04429 14.53214,0.0448 15.27168,0.386585 1.04884,0.484727 2.10983,1.522884 2.62176,2.56534 l 0.43878,0.89349 0.0422,22.608427 0.0422,22.608427 h -4.99154 -4.99154 V 70.018814 48.875381 H 100.98721 89.498064 l 0.05542,15.006294 c 0.06095,16.502547 0.03284,16.014139 1.046148,18.179522 0.861325,1.840608 2.164849,2.870788 4.11302,3.250532 1.168467,0.227763 4.314203,0.112608 5.824598,-0.213218 l 0.96868,-0.208967 0.0968,1.433791 c 0.0532,0.788584 0.14386,2.189484 0.20138,3.113112 l 0.10459,1.679322 -1.24925,0.332847 c -2.215032,0.590164 -5.948389,0.878776 -8.477285,0.655343 z"
   id="path3753"
   inkscape:connector-curvature="0" /><path
   style="stroke-width:0.15837777"
   d="m 114.49322,35.557703 c -1.52521,-0.359335 -2.88339,-1.48845 -3.57471,-2.971799 -0.35241,-0.756153 -0.41727,-1.1155 -0.41938,-2.323242 -0.002,-1.297773 0.0452,-1.525649 0.51806,-2.486113 0.97076,-1.971894 2.66447,-2.999597 4.94348,-2.999597 2.20836,0 3.92682,1.004069 4.8266,2.820112 0.61457,1.240403 0.7533,3.401192 0.29966,4.667382 -0.87358,2.438286 -3.87013,3.934925 -6.59371,3.293257 z"
   id="path3755"
   inkscape:connector-curvature="0" /></svg>